<svg xmlns="http://www.w3.org/2000/svg" version="1.1" xmlns:xlink="http://www.w3.org/1999/xlink" xmlns:svgjs="http://svgjs.dev/svgjs" width="1500" height="1500" viewBox="0 0 1500 1500"><rect width="1500" height="1500" fill="#000000"></rect><g transform="matrix(0.6666666666666666,0,0,0.6666666666666666,249.39393939393938,438.5856950067477)"><svg viewBox="0 0 396 247" data-background-color="#000000" preserveAspectRatio="xMidYMid meet" height="935" width="1500" xmlns="http://www.w3.org/2000/svg" xmlns:xlink="http://www.w3.org/1999/xlink"><g id="tight-bounds" transform="matrix(1,0,0,1,0.2400000000000091,-0.09999999999999432)"><svg viewBox="0 0 395.52 247.2" height="247.2" width="395.52"><rect width="395.52" height="247.2" fill="url(#0cbe0391-3063-4813-891b-1ca7a3fbe9ba)" mask="url(#944f8b08-484d-4259-b5bc-c6b7feb6bd24)" data-fill-palette-color="tertiary"></rect><g><svg></svg></g><g><svg viewBox="0 0 395.52 247.2" height="247.2" width="395.52"><g transform="matrix(1,0,0,1,82.17508496042214,47.215199999999996)"><svg viewBox="0 0 231.1698300791557 152.7696" height="152.7696" width="231.1698300791557"><g><svg viewBox="0 0 231.1698300791557 152.7696" height="152.7696" width="231.1698300791557"><g><svg viewBox="0 0 231.1698300791557 152.7696" height="152.7696" width="231.1698300791557"><g><svg viewBox="0 0 231.1698300791557 152.7696" height="152.7696" width="231.1698300791557"><g id="textblocktransform"><svg viewBox="0 0 231.1698300791557 152.7696" height="152.7696" width="231.1698300791557" id="textblock"><g><svg viewBox="0 0 231.1698300791557 152.7696" height="152.7696" width="231.1698300791557"><g transform="matrix(1,0,0,1,0,0)"><svg width="231.1698300791557" viewBox="5.35 -37.9 57.35 37.9" height="152.7696" data-palette-color="url(#45a4477d-c781-44b1-b32e-980892f7b49c)"></svg></g></svg></g></svg></g></svg></g></svg></g></svg></g></svg></g><g><path d="M0 123.6c0-68.262 55.338-123.6 123.6-123.6 30.402 0 58.24 10.976 79.768 29.183l-11.147 0c-19.26-14.022-42.974-22.294-68.621-22.295-64.458 0-116.712 52.254-116.712 116.712 0 64.458 52.254 116.712 116.712 116.712 25.647 0 49.361-8.272 68.621-22.295l11.147 0c-21.528 18.206-49.366 29.183-79.768 29.183-68.262 0-123.6-55.338-123.6-123.6z" fill="url(#0cbe0391-3063-4813-891b-1ca7a3fbe9ba)" stroke="transparent" data-fill-palette-color="tertiary"></path></g></svg></g><defs></defs><mask id="52677868-19e6-4fb1-890d-697e549e3e34"><g id="SvgjsG2247"><svg viewBox="0 0 395.52 247.2" height="247.2" width="395.52"><g><svg></svg></g><g><svg viewBox="0 0 395.52 247.2" height="247.2" width="395.52"><g transform="matrix(1,0,0,1,82.17508496042214,47.215199999999996)"><svg viewBox="0 0 231.1698300791557 152.7696" height="152.7696" width="231.1698300791557"><g><svg viewBox="0 0 231.1698300791557 152.7696" height="152.7696" width="231.1698300791557"><g><svg viewBox="0 0 231.1698300791557 152.7696" height="152.7696" width="231.1698300791557"><g><svg viewBox="0 0 231.1698300791557 152.7696" height="152.7696" width="231.1698300791557"><g id="SvgjsG2246"><svg viewBox="0 0 231.1698300791557 152.7696" height="152.7696" width="231.1698300791557" id="SvgjsSvg2245"><g><svg viewBox="0 0 231.1698300791557 152.7696" height="152.7696" width="231.1698300791557"><g transform="matrix(1,0,0,1,0,0)"><svg width="231.1698300791557" viewBox="5.35 -37.9 57.35 37.9" height="152.7696" data-palette-color="url(#45a4477d-c781-44b1-b32e-980892f7b49c)"><path d="M18.6-37.9Q31-37.9 31-26.6L31-26.6Q31-21.1 27.9-18.23 24.8-15.35 18.6-15.35L18.6-15.35 10.2-15.35 10.2 0 5.35 0 5.35-37.9 18.6-37.9ZM26.05-26.6Q26.05-30.3 24.2-31.98 22.35-33.65 18.6-33.65L18.6-33.65 10.2-33.65 10.2-19.65 18.6-19.65Q26-19.65 26.05-26.6L26.05-26.6ZM62.7-37.9L62.7-33.55 51.3-33.55 51.3 0 46.4 0 46.4-33.55 35-33.55 35-37.9 62.7-37.9Z" opacity="1" transform="matrix(1,0,0,1,0,0)" fill="white" class="wordmark-text-0" id="SvgjsPath2244"></path></svg></g></svg></g></svg></g></svg></g></svg></g></svg></g></svg></g><g><path d="M0 123.6c0-68.262 55.338-123.6 123.6-123.6 30.402 0 58.24 10.976 79.768 29.183l-11.147 0c-19.26-14.022-42.974-22.294-68.621-22.295-64.458 0-116.712 52.254-116.712 116.712 0 64.458 52.254 116.712 116.712 116.712 25.647 0 49.361-8.272 68.621-22.295l11.147 0c-21.528 18.206-49.366 29.183-79.768 29.183-68.262 0-123.6-55.338-123.6-123.6z" fill="black" stroke="transparent"></path></g></svg></g><defs><mask></mask></defs></svg><rect width="395.52" height="247.2" fill="black" stroke="none" visibility="hidden"></rect></g></mask><linearGradient x1="0.054" x2="0.941" y1="0.5" y2="0.5" id="45a4477d-c781-44b1-b32e-980892f7b49c"><stop stop-color="#0f3054" offset="0"></stop><stop stop-color="#3b8dcb" offset="0.498"></stop><stop stop-color="#0f3054" offset="1"></stop></linearGradient><rect width="395.52" height="247.2" fill="url(#45a4477d-c781-44b1-b32e-980892f7b49c)" mask="url(#52677868-19e6-4fb1-890d-697e549e3e34)" data-fill-palette-color="primary"></rect><mask id="944f8b08-484d-4259-b5bc-c6b7feb6bd24"><g id="SvgjsG2262"><svg viewBox="0 0 395.52 247.2" height="247.2" width="395.52"><g><svg></svg></g><g><svg viewBox="0 0 395.52 247.2" height="247.2" width="395.52"><g transform="matrix(1,0,0,1,82.17508496042214,47.215199999999996)"><svg viewBox="0 0 231.1698300791557 152.7696" height="152.7696" width="231.1698300791557"><g><svg viewBox="0 0 231.1698300791557 152.7696" height="152.7696" width="231.1698300791557"><g><svg viewBox="0 0 231.1698300791557 152.7696" height="152.7696" width="231.1698300791557"><g><svg viewBox="0 0 231.1698300791557 152.7696" height="152.7696" width="231.1698300791557"><g id="SvgjsG2261"><svg viewBox="0 0 231.1698300791557 152.7696" height="152.7696" width="231.1698300791557" id="SvgjsSvg2260"><g><svg viewBox="0 0 231.1698300791557 152.7696" height="152.7696" width="231.1698300791557"><g transform="matrix(1,0,0,1,0,0)"><svg width="231.1698300791557" viewBox="5.35 -37.9 57.35 37.9" height="152.7696" data-palette-color="url(#45a4477d-c781-44b1-b32e-980892f7b49c)"></svg></g></svg></g></svg></g></svg></g></svg></g></svg></g></svg></g><g><path d="M0 123.6c0-68.262 55.338-123.6 123.6-123.6 30.402 0 58.24 10.976 79.768 29.183l-11.147 0c-19.26-14.022-42.974-22.294-68.621-22.295-64.458 0-116.712 52.254-116.712 116.712 0 64.458 52.254 116.712 116.712 116.712 25.647 0 49.361-8.272 68.621-22.295l11.147 0c-21.528 18.206-49.366 29.183-79.768 29.183-68.262 0-123.6-55.338-123.6-123.6z" fill="white" stroke="transparent"></path></g></svg></g><defs><mask></mask></defs><mask><g id="SvgjsG2259"><svg viewBox="0 0 395.52 247.2" height="247.2" width="395.52"><g><svg></svg></g><g><svg viewBox="0 0 395.52 247.2" height="247.2" width="395.52"><g transform="matrix(1,0,0,1,82.17508496042214,47.215199999999996)"><svg viewBox="0 0 231.1698300791557 152.7696" height="152.7696" width="231.1698300791557"><g><svg viewBox="0 0 231.1698300791557 152.7696" height="152.7696" width="231.1698300791557"><g><svg viewBox="0 0 231.1698300791557 152.7696" height="152.7696" width="231.1698300791557"><g><svg viewBox="0 0 231.1698300791557 152.7696" height="152.7696" width="231.1698300791557"><g id="SvgjsG2258"><svg viewBox="0 0 231.1698300791557 152.7696" height="152.7696" width="231.1698300791557" id="SvgjsSvg2257"><g><svg viewBox="0 0 231.1698300791557 152.7696" height="152.7696" width="231.1698300791557"><g transform="matrix(1,0,0,1,0,0)"><svg width="231.1698300791557" viewBox="5.35 -37.9 57.35 37.9" height="152.7696" data-palette-color="url(#45a4477d-c781-44b1-b32e-980892f7b49c)"><path d="M18.6-37.9Q31-37.9 31-26.6L31-26.6Q31-21.1 27.9-18.23 24.8-15.35 18.6-15.35L18.6-15.35 10.2-15.35 10.2 0 5.35 0 5.35-37.9 18.6-37.9ZM26.05-26.6Q26.05-30.3 24.2-31.98 22.35-33.65 18.6-33.65L18.6-33.65 10.2-33.65 10.2-19.65 18.6-19.65Q26-19.65 26.05-26.6L26.05-26.6ZM62.7-37.9L62.7-33.55 51.3-33.55 51.3 0 46.4 0 46.4-33.55 35-33.55 35-37.9 62.7-37.9Z" opacity="1" transform="matrix(1,0,0,1,0,0)" fill="black" class="wordmark-text-0" id="SvgjsPath2256"></path></svg></g></svg></g></svg></g></svg></g></svg></g></svg></g></svg></g><g><path d="M0 123.6c0-68.262 55.338-123.6 123.6-123.6 30.402 0 58.24 10.976 79.768 29.183l-11.147 0c-19.26-14.022-42.974-22.294-68.621-22.295-64.458 0-116.712 52.254-116.712 116.712 0 64.458 52.254 116.712 116.712 116.712 25.647 0 49.361-8.272 68.621-22.295l11.147 0c-21.528 18.206-49.366 29.183-79.768 29.183-68.262 0-123.6-55.338-123.6-123.6z" fill="black" stroke="transparent"></path></g></svg></g><defs><mask></mask></defs></svg><rect width="395.52" height="247.2" fill="black" stroke="none" visibility="hidden"></rect></g></mask></svg><rect width="395.52" height="247.2" fill="black" stroke="none" visibility="hidden"></rect></g></mask><linearGradient x1="0.054" x2="0.941" y1="0.5" y2="0.5" id="0cbe0391-3063-4813-891b-1ca7a3fbe9ba"><stop stop-color="#864d25" offset="0"></stop><stop stop-color="#f1c4b3" offset="0.498"></stop><stop stop-color="#864d25" offset="1"></stop></linearGradient></svg><rect width="395.52" height="247.2" fill="none" stroke="none" visibility="hidden"></rect></g></svg></g></svg>